<mxfile host="app.diagrams.net" modified="2021-02-23T09:10:15.815Z" agent="5.0 (Windows NT 10.0; Win64; x64) AppleWebKit/537.36 (KHTML, like Gecko) Chrome/88.0.4324.182 Safari/537.36" etag="LCYgqAHKdBjc5u5J4zB-" version="14.4.2" type="github">
  <diagram id="I1kVTfjU9JLQThhipxPX" name="企業體合併">
    <mxGraphModel dx="2076" dy="984" grid="1" gridSize="10" guides="1" tooltips="1" connect="1" arrows="1" fold="1" page="1" pageScale="1" pageWidth="827" pageHeight="1169" math="0" shadow="0">
      <root>
        <mxCell id="0" />
        <mxCell id="1" parent="0" />
        <mxCell id="622DtLXUnfuE_CCLkOnz-1" value="clien" style="swimlane;whiteSpace=wrap" vertex="1" parent="1">
          <mxGeometry x="670" y="20" width="544.5" height="1140" as="geometry" />
        </mxCell>
        <mxCell id="622DtLXUnfuE_CCLkOnz-2" value="" style="ellipse;shape=startState;fillColor=#000000;strokeColor=#ff0000;" vertex="1" parent="622DtLXUnfuE_CCLkOnz-1">
          <mxGeometry x="235" y="132" width="30" height="30" as="geometry" />
        </mxCell>
        <mxCell id="622DtLXUnfuE_CCLkOnz-3" value="輸入查詢條件" style="rounded=1;" vertex="1" parent="622DtLXUnfuE_CCLkOnz-1">
          <mxGeometry x="195" y="232" width="110" height="50" as="geometry" />
        </mxCell>
        <mxCell id="622DtLXUnfuE_CCLkOnz-4" value="點選&#xa;&quot;列出【集團失效-集團列表】&#xa;條件的資料&quot;" style="rounded=1;" vertex="1" parent="622DtLXUnfuE_CCLkOnz-1">
          <mxGeometry x="140" y="334" width="220" height="70" as="geometry" />
        </mxCell>
        <mxCell id="622DtLXUnfuE_CCLkOnz-5" value="" style="endArrow=open;strokeColor=#FF0000;endFill=1;rounded=0" edge="1" parent="622DtLXUnfuE_CCLkOnz-1" source="622DtLXUnfuE_CCLkOnz-3" target="622DtLXUnfuE_CCLkOnz-4">
          <mxGeometry relative="1" as="geometry" />
        </mxCell>
        <mxCell id="622DtLXUnfuE_CCLkOnz-6" style="rounded=0;orthogonalLoop=1;jettySize=auto;html=1;exitX=0.5;exitY=1;exitDx=0;exitDy=0;entryX=0.5;entryY=0;entryDx=0;entryDy=0;endArrow=classic;endFill=1;strokeColor=#FF0000;" edge="1" parent="622DtLXUnfuE_CCLkOnz-1" source="622DtLXUnfuE_CCLkOnz-7">
          <mxGeometry relative="1" as="geometry">
            <mxPoint x="250" y="524" as="targetPoint" />
          </mxGeometry>
        </mxCell>
        <mxCell id="622DtLXUnfuE_CCLkOnz-7" value="顯示符合條件的&#xa;集團列表" style="rounded=1;" vertex="1" parent="622DtLXUnfuE_CCLkOnz-1">
          <mxGeometry x="195" y="444" width="110" height="50" as="geometry" />
        </mxCell>
        <mxCell id="622DtLXUnfuE_CCLkOnz-8" value="1.查詢參數&lt;br&gt;2.使用者身分" style="html=1;rounded=0;align=left;fillColor=#f5f5f5;strokeColor=#666666;fontColor=#333333;" vertex="1" parent="622DtLXUnfuE_CCLkOnz-1">
          <mxGeometry x="410" y="344" width="80" height="50" as="geometry" />
        </mxCell>
        <mxCell id="622DtLXUnfuE_CCLkOnz-9" value="" style="endArrow=open;strokeColor=#FF0000;endFill=1;rounded=0;exitX=1;exitY=0.5;exitDx=0;exitDy=0;entryX=0;entryY=0.5;entryDx=0;entryDy=0;" edge="1" parent="622DtLXUnfuE_CCLkOnz-1" source="622DtLXUnfuE_CCLkOnz-4" target="622DtLXUnfuE_CCLkOnz-8">
          <mxGeometry relative="1" as="geometry">
            <mxPoint x="450" y="272" as="sourcePoint" />
            <mxPoint x="420" y="369" as="targetPoint" />
          </mxGeometry>
        </mxCell>
        <mxCell id="622DtLXUnfuE_CCLkOnz-10" style="edgeStyle=none;rounded=0;orthogonalLoop=1;jettySize=auto;html=1;exitX=0.5;exitY=1;exitDx=0;exitDy=0;entryX=0.5;entryY=0;entryDx=0;entryDy=0;endArrow=classic;endFill=1;strokeColor=#FF0000;" edge="1" parent="622DtLXUnfuE_CCLkOnz-1" source="622DtLXUnfuE_CCLkOnz-2" target="622DtLXUnfuE_CCLkOnz-3">
          <mxGeometry relative="1" as="geometry">
            <mxPoint x="250" y="172" as="sourcePoint" />
          </mxGeometry>
        </mxCell>
        <mxCell id="622DtLXUnfuE_CCLkOnz-13" value="點選&quot;失效&quot;" style="rounded=1;" vertex="1" parent="622DtLXUnfuE_CCLkOnz-1">
          <mxGeometry x="345" y="572" width="100" height="38" as="geometry" />
        </mxCell>
        <mxCell id="622DtLXUnfuE_CCLkOnz-16" value="編輯集團失效申請單&#xa;(選擇失效原因)" style="rounded=1;" vertex="1" parent="622DtLXUnfuE_CCLkOnz-1">
          <mxGeometry x="175" y="710" width="150" height="52" as="geometry" />
        </mxCell>
        <mxCell id="622DtLXUnfuE_CCLkOnz-18" value="" style="rhombus;whiteSpace=wrap;html=1;fillColor=#ffffc0;strokeColor=#ff0000;rounded=0;align=left;" vertex="1" parent="622DtLXUnfuE_CCLkOnz-1">
          <mxGeometry x="229.99999999999994" y="810" width="40" height="28" as="geometry" />
        </mxCell>
        <mxCell id="622DtLXUnfuE_CCLkOnz-22" value="點選&quot;離開(放棄編輯)&quot;" style="rounded=1;" vertex="1" parent="622DtLXUnfuE_CCLkOnz-1">
          <mxGeometry x="31.25" y="931" width="129.5" height="50" as="geometry" />
        </mxCell>
        <mxCell id="622DtLXUnfuE_CCLkOnz-23" style="rounded=0;orthogonalLoop=1;jettySize=auto;html=1;exitX=0;exitY=1;exitDx=0;exitDy=0;endArrow=classic;endFill=1;strokeColor=#FF0000;entryX=0.5;entryY=0;entryDx=0;entryDy=0;" edge="1" parent="622DtLXUnfuE_CCLkOnz-1" source="622DtLXUnfuE_CCLkOnz-18">
          <mxGeometry relative="1" as="geometry">
            <mxPoint x="95" y="931" as="targetPoint" />
          </mxGeometry>
        </mxCell>
        <mxCell id="622DtLXUnfuE_CCLkOnz-24" value="點選&quot;送主管簽核&quot;" style="rounded=1;" vertex="1" parent="622DtLXUnfuE_CCLkOnz-1">
          <mxGeometry x="340.24999999999994" y="931" width="110" height="50" as="geometry" />
        </mxCell>
        <mxCell id="622DtLXUnfuE_CCLkOnz-25" style="edgeStyle=none;rounded=0;orthogonalLoop=1;jettySize=auto;html=1;exitX=1;exitY=1;exitDx=0;exitDy=0;entryX=0.5;entryY=0;entryDx=0;entryDy=0;endArrow=classic;endFill=1;strokeColor=#FF0000;" edge="1" parent="622DtLXUnfuE_CCLkOnz-1" source="622DtLXUnfuE_CCLkOnz-18" target="622DtLXUnfuE_CCLkOnz-24">
          <mxGeometry relative="1" as="geometry" />
        </mxCell>
        <mxCell id="622DtLXUnfuE_CCLkOnz-26" value="點選&quot;暫存&quot;" style="rounded=1;" vertex="1" parent="622DtLXUnfuE_CCLkOnz-1">
          <mxGeometry x="195.24999999999994" y="931" width="110" height="50" as="geometry" />
        </mxCell>
        <mxCell id="622DtLXUnfuE_CCLkOnz-27" style="edgeStyle=none;rounded=0;orthogonalLoop=1;jettySize=auto;html=1;exitX=0.5;exitY=1;exitDx=0;exitDy=0;endArrow=classic;endFill=1;strokeColor=#FF0000;" edge="1" parent="622DtLXUnfuE_CCLkOnz-1" source="622DtLXUnfuE_CCLkOnz-18" target="622DtLXUnfuE_CCLkOnz-26">
          <mxGeometry relative="1" as="geometry" />
        </mxCell>
        <mxCell id="622DtLXUnfuE_CCLkOnz-28" value="" style="ellipse;html=1;shape=endState;fillColor=#000000;strokeColor=#ff0000;align=center;" vertex="1" parent="622DtLXUnfuE_CCLkOnz-1">
          <mxGeometry x="79.99999999999994" y="1031" width="30" height="30" as="geometry" />
        </mxCell>
        <mxCell id="622DtLXUnfuE_CCLkOnz-29" style="edgeStyle=orthogonalEdgeStyle;rounded=0;orthogonalLoop=1;jettySize=auto;html=1;exitX=0.5;exitY=1;exitDx=0;exitDy=0;endArrow=classic;endFill=1;strokeColor=#FF0000;" edge="1" parent="622DtLXUnfuE_CCLkOnz-1" target="622DtLXUnfuE_CCLkOnz-28">
          <mxGeometry relative="1" as="geometry">
            <mxPoint x="95" y="981" as="sourcePoint" />
          </mxGeometry>
        </mxCell>
        <mxCell id="622DtLXUnfuE_CCLkOnz-32" style="edgeStyle=orthogonalEdgeStyle;rounded=0;orthogonalLoop=1;jettySize=auto;html=1;exitX=0.5;exitY=1;exitDx=0;exitDy=0;entryX=0.5;entryY=0;entryDx=0;entryDy=0;endArrow=classic;endFill=1;strokeColor=#FF0000;" edge="1" parent="622DtLXUnfuE_CCLkOnz-1" source="622DtLXUnfuE_CCLkOnz-16" target="622DtLXUnfuE_CCLkOnz-18">
          <mxGeometry relative="1" as="geometry">
            <mxPoint x="250.25" y="820" as="sourcePoint" />
          </mxGeometry>
        </mxCell>
        <mxCell id="622DtLXUnfuE_CCLkOnz-124" value="" style="rhombus;whiteSpace=wrap;html=1;fillColor=#ffffc0;strokeColor=#ff0000;rounded=0;align=left;" vertex="1" parent="622DtLXUnfuE_CCLkOnz-1">
          <mxGeometry x="230" y="522" width="40" height="28" as="geometry" />
        </mxCell>
        <mxCell id="622DtLXUnfuE_CCLkOnz-125" style="rounded=0;orthogonalLoop=1;jettySize=auto;html=1;exitX=1;exitY=0.5;exitDx=0;exitDy=0;entryX=0.5;entryY=0;entryDx=0;entryDy=0;endArrow=classic;endFill=1;strokeColor=#FF0000;" edge="1" parent="622DtLXUnfuE_CCLkOnz-1" source="622DtLXUnfuE_CCLkOnz-124" target="622DtLXUnfuE_CCLkOnz-13">
          <mxGeometry relative="1" as="geometry">
            <mxPoint x="249.5" y="580" as="targetPoint" />
            <mxPoint x="249.5" y="550" as="sourcePoint" />
            <Array as="points">
              <mxPoint x="395" y="536" />
            </Array>
          </mxGeometry>
        </mxCell>
        <mxCell id="622DtLXUnfuE_CCLkOnz-131" value="點選&quot;成員查詢&quot;" style="rounded=1;" vertex="1" parent="622DtLXUnfuE_CCLkOnz-1">
          <mxGeometry x="200" y="572" width="105" height="44.5" as="geometry" />
        </mxCell>
        <mxCell id="622DtLXUnfuE_CCLkOnz-128" value="點選&quot;查看本集團異動歷史&quot;" style="rounded=1;" vertex="1" parent="622DtLXUnfuE_CCLkOnz-1">
          <mxGeometry x="13.75" y="572" width="164.5" height="48" as="geometry" />
        </mxCell>
        <mxCell id="622DtLXUnfuE_CCLkOnz-116" style="rounded=0;orthogonalLoop=1;jettySize=auto;html=1;exitX=0.5;exitY=1;exitDx=0;exitDy=0;endArrow=classic;endFill=1;strokeColor=#FF0000;entryX=1;entryY=0.5;entryDx=0;entryDy=0;" edge="1" parent="622DtLXUnfuE_CCLkOnz-1" source="622DtLXUnfuE_CCLkOnz-13" target="622DtLXUnfuE_CCLkOnz-16">
          <mxGeometry relative="1" as="geometry">
            <mxPoint x="619.5" y="591" as="targetPoint" />
            <Array as="points">
              <mxPoint x="395" y="736" />
            </Array>
          </mxGeometry>
        </mxCell>
        <mxCell id="622DtLXUnfuE_CCLkOnz-36" value="server" style="swimlane;whiteSpace=wrap" vertex="1" parent="1">
          <mxGeometry x="1214.5" y="20" width="260" height="1140" as="geometry" />
        </mxCell>
        <mxCell id="622DtLXUnfuE_CCLkOnz-37" value="查詢集團列表並篩選資料" style="rounded=1;" vertex="1" parent="622DtLXUnfuE_CCLkOnz-36">
          <mxGeometry x="55.5" y="338" width="154.5" height="62" as="geometry" />
        </mxCell>
        <mxCell id="622DtLXUnfuE_CCLkOnz-39" style="edgeStyle=none;rounded=0;orthogonalLoop=1;jettySize=auto;html=1;exitX=0.5;exitY=1;exitDx=0;exitDy=0;endArrow=classic;endFill=1;strokeColor=#FF0000;" edge="1" parent="622DtLXUnfuE_CCLkOnz-36" source="622DtLXUnfuE_CCLkOnz-40" target="622DtLXUnfuE_CCLkOnz-41">
          <mxGeometry relative="1" as="geometry" />
        </mxCell>
        <mxCell id="622DtLXUnfuE_CCLkOnz-40" value="儲存申請資料" style="rounded=1;" vertex="1" parent="622DtLXUnfuE_CCLkOnz-36">
          <mxGeometry x="80.25" y="981" width="110" height="50" as="geometry" />
        </mxCell>
        <mxCell id="622DtLXUnfuE_CCLkOnz-41" value="" style="ellipse;html=1;shape=endState;fillColor=#000000;strokeColor=#ff0000;align=center;" vertex="1" parent="622DtLXUnfuE_CCLkOnz-36">
          <mxGeometry x="120.25" y="1070" width="30" height="30" as="geometry" />
        </mxCell>
        <mxCell id="622DtLXUnfuE_CCLkOnz-42" value="" style="endArrow=open;strokeColor=#FF0000;endFill=1;rounded=0;exitX=1;exitY=0.5;exitDx=0;exitDy=0;" edge="1" parent="1" source="622DtLXUnfuE_CCLkOnz-8" target="622DtLXUnfuE_CCLkOnz-37">
          <mxGeometry relative="1" as="geometry">
            <mxPoint x="1020" y="399" as="sourcePoint" />
            <mxPoint x="1090" y="399" as="targetPoint" />
          </mxGeometry>
        </mxCell>
        <mxCell id="622DtLXUnfuE_CCLkOnz-43" value="" style="endArrow=open;strokeColor=#FF0000;endFill=1;rounded=0;exitX=0.5;exitY=1;exitDx=0;exitDy=0;entryX=1;entryY=0.5;entryDx=0;entryDy=0;edgeStyle=orthogonalEdgeStyle;" edge="1" parent="1" source="622DtLXUnfuE_CCLkOnz-37" target="622DtLXUnfuE_CCLkOnz-7">
          <mxGeometry relative="1" as="geometry">
            <mxPoint x="1170" y="399" as="sourcePoint" />
            <mxPoint x="1560" y="399" as="targetPoint" />
          </mxGeometry>
        </mxCell>
        <mxCell id="622DtLXUnfuE_CCLkOnz-45" value="&lt;font style=&quot;font-size: 12px&quot;&gt;其他操作說明:&lt;br&gt;*成員查詢 :&amp;nbsp;&lt;span style=&quot;color: rgb(68 , 68 , 68)&quot;&gt;三階層客戶資料管理維護 &amp;gt;&amp;nbsp;&lt;/span&gt;&lt;span style=&quot;color: rgb(68 , 68 , 68)&quot;&gt;企業體 &amp;gt;&amp;nbsp;&lt;/span&gt;&lt;span style=&quot;color: rgb(68 , 68 , 68)&quot;&gt;既有企業維護 &amp;gt;&amp;nbsp;&lt;/span&gt;&lt;span style=&quot;color: rgb(68 , 68 , 68)&quot;&gt;成員查詢 ?&lt;br&gt;*異動歷史:&amp;nbsp;&lt;/span&gt;&lt;span style=&quot;color: rgb(68 , 68 , 68)&quot;&gt;三階層客戶資料管理維護 &amp;gt;&amp;nbsp;&lt;/span&gt;&lt;span style=&quot;color: rgb(68 , 68 , 68)&quot;&gt;企業體 &amp;gt;&amp;nbsp;&lt;/span&gt;&lt;span style=&quot;color: rgb(68 , 68 , 68)&quot;&gt;既有企業維護 &amp;gt; 異動歷史 ?&lt;/span&gt;&lt;span style=&quot;color: rgb(68 , 68 , 68)&quot;&gt;&lt;br&gt;&lt;/span&gt;&lt;/font&gt;" style="shape=note;whiteSpace=wrap;html=1;backgroundOutline=1;darkOpacity=0.05;rounded=1;size=20;fillColor=#ffe6cc;strokeColor=#d79b00;align=left;verticalAlign=top;" vertex="1" parent="1">
          <mxGeometry x="436.93" y="620" width="182.25" height="110" as="geometry" />
        </mxCell>
        <mxCell id="622DtLXUnfuE_CCLkOnz-48" style="edgeStyle=none;rounded=0;orthogonalLoop=1;jettySize=auto;html=1;endArrow=none;endFill=0;strokeColor=#FF0000;dashed=1;entryX=0.5;entryY=1;entryDx=0;entryDy=0;" edge="1" parent="1" source="622DtLXUnfuE_CCLkOnz-45" target="622DtLXUnfuE_CCLkOnz-128">
          <mxGeometry relative="1" as="geometry">
            <mxPoint x="646.1199999999999" y="487" as="sourcePoint" />
            <mxPoint x="760" y="660" as="targetPoint" />
            <Array as="points">
              <mxPoint x="766" y="670" />
            </Array>
          </mxGeometry>
        </mxCell>
        <mxCell id="622DtLXUnfuE_CCLkOnz-51" style="edgeStyle=orthogonalEdgeStyle;rounded=0;orthogonalLoop=1;jettySize=auto;html=1;exitX=1;exitY=0.5;exitDx=0;exitDy=0;entryX=0.5;entryY=0;entryDx=0;entryDy=0;endArrow=classic;endFill=1;strokeColor=#FF0000;" edge="1" parent="1" source="622DtLXUnfuE_CCLkOnz-24" target="622DtLXUnfuE_CCLkOnz-40">
          <mxGeometry relative="1" as="geometry" />
        </mxCell>
        <mxCell id="622DtLXUnfuE_CCLkOnz-52" style="edgeStyle=orthogonalEdgeStyle;rounded=0;orthogonalLoop=1;jettySize=auto;html=1;exitX=0.5;exitY=1;exitDx=0;exitDy=0;endArrow=classic;endFill=1;strokeColor=#FF0000;entryX=0;entryY=0.5;entryDx=0;entryDy=0;" edge="1" parent="1" source="622DtLXUnfuE_CCLkOnz-26" target="622DtLXUnfuE_CCLkOnz-40">
          <mxGeometry relative="1" as="geometry" />
        </mxCell>
        <mxCell id="622DtLXUnfuE_CCLkOnz-65" value="集團資訊" style="swimlane;fontStyle=0;childLayout=stackLayout;horizontal=1;startSize=26;horizontalStack=0;resizeParent=1;resizeParentMax=0;resizeLast=0;collapsible=1;marginBottom=0;align=center;fontSize=14;" vertex="1" parent="1">
          <mxGeometry x="1560" y="250" width="160" height="176" as="geometry">
            <mxRectangle x="1520" y="232" width="90" height="26" as="alternateBounds" />
          </mxGeometry>
        </mxCell>
        <mxCell id="622DtLXUnfuE_CCLkOnz-66" value="集團代表證號" style="text;fillColor=none;spacingLeft=4;spacingRight=4;overflow=hidden;rotatable=0;points=[[0,0.5],[1,0.5]];portConstraint=eastwest;fontSize=12;strokeColor=#000000;" vertex="1" parent="622DtLXUnfuE_CCLkOnz-65">
          <mxGeometry y="26" width="160" height="30" as="geometry" />
        </mxCell>
        <mxCell id="622DtLXUnfuE_CCLkOnz-123" value="集團簡稱" style="text;fillColor=none;spacingLeft=4;spacingRight=4;overflow=hidden;rotatable=0;points=[[0,0.5],[1,0.5]];portConstraint=eastwest;fontSize=12;strokeColor=#000000;" vertex="1" parent="622DtLXUnfuE_CCLkOnz-65">
          <mxGeometry y="56" width="160" height="30" as="geometry" />
        </mxCell>
        <mxCell id="622DtLXUnfuE_CCLkOnz-122" value="集團名稱" style="text;fillColor=none;spacingLeft=4;spacingRight=4;overflow=hidden;rotatable=0;points=[[0,0.5],[1,0.5]];portConstraint=eastwest;fontSize=12;strokeColor=#000000;" vertex="1" parent="622DtLXUnfuE_CCLkOnz-65">
          <mxGeometry y="86" width="160" height="30" as="geometry" />
        </mxCell>
        <mxCell id="622DtLXUnfuE_CCLkOnz-67" value="生效日期" style="text;fillColor=none;spacingLeft=4;spacingRight=4;overflow=hidden;rotatable=0;points=[[0,0.5],[1,0.5]];portConstraint=eastwest;fontSize=12;strokeColor=#000000;" vertex="1" parent="622DtLXUnfuE_CCLkOnz-65">
          <mxGeometry y="116" width="160" height="30" as="geometry" />
        </mxCell>
        <mxCell id="622DtLXUnfuE_CCLkOnz-126" value="是否為Major營運處" style="text;fillColor=none;spacingLeft=4;spacingRight=4;overflow=hidden;rotatable=0;points=[[0,0.5],[1,0.5]];portConstraint=eastwest;fontSize=12;strokeColor=#000000;" vertex="1" parent="622DtLXUnfuE_CCLkOnz-65">
          <mxGeometry y="146" width="160" height="30" as="geometry" />
        </mxCell>
        <mxCell id="622DtLXUnfuE_CCLkOnz-68" value="Use" style="endArrow=open;endSize=12;dashed=1;html=1;strokeColor=#FF0000;exitX=1;exitY=0.5;exitDx=0;exitDy=0;entryX=0;entryY=0.5;entryDx=0;entryDy=0;" edge="1" parent="1" source="622DtLXUnfuE_CCLkOnz-37" target="622DtLXUnfuE_CCLkOnz-67">
          <mxGeometry x="-0.0661" y="10" width="160" relative="1" as="geometry">
            <mxPoint x="1860" y="402" as="sourcePoint" />
            <mxPoint x="2020" y="402" as="targetPoint" />
            <mxPoint as="offset" />
          </mxGeometry>
        </mxCell>
        <mxCell id="622DtLXUnfuE_CCLkOnz-71" value="集團失效申請資料" style="swimlane;fontStyle=0;childLayout=stackLayout;horizontal=1;startSize=26;horizontalStack=0;resizeParent=1;resizeParentMax=0;resizeLast=0;collapsible=1;marginBottom=0;align=center;fontSize=14;" vertex="1" parent="1">
          <mxGeometry x="1520" y="830" width="160" height="296" as="geometry">
            <mxRectangle x="1250" y="1624" width="160" height="26" as="alternateBounds" />
          </mxGeometry>
        </mxCell>
        <mxCell id="622DtLXUnfuE_CCLkOnz-72" value="執行動作" style="text;spacingLeft=4;spacingRight=4;overflow=hidden;rotatable=0;points=[[0,0.5],[1,0.5]];portConstraint=eastwest;fontSize=12;strokeColor=#000000;" vertex="1" parent="622DtLXUnfuE_CCLkOnz-71">
          <mxGeometry y="26" width="160" height="30" as="geometry" />
        </mxCell>
        <mxCell id="622DtLXUnfuE_CCLkOnz-73" value="集團代表證號" style="text;spacingLeft=4;spacingRight=4;overflow=hidden;rotatable=0;points=[[0,0.5],[1,0.5]];portConstraint=eastwest;fontSize=12;strokeColor=#000000;" vertex="1" parent="622DtLXUnfuE_CCLkOnz-71">
          <mxGeometry y="56" width="160" height="30" as="geometry" />
        </mxCell>
        <mxCell id="622DtLXUnfuE_CCLkOnz-74" value="集團名稱" style="text;fillColor=none;spacingLeft=4;spacingRight=4;overflow=hidden;rotatable=0;points=[[0,0.5],[1,0.5]];portConstraint=eastwest;fontSize=12;strokeColor=#000000;" vertex="1" parent="622DtLXUnfuE_CCLkOnz-71">
          <mxGeometry y="86" width="160" height="30" as="geometry" />
        </mxCell>
        <mxCell id="622DtLXUnfuE_CCLkOnz-79" value="提案人" style="text;fillColor=none;spacingLeft=4;spacingRight=4;overflow=hidden;rotatable=0;points=[[0,0.5],[1,0.5]];portConstraint=eastwest;fontSize=12;strokeColor=#000000;" vertex="1" parent="622DtLXUnfuE_CCLkOnz-71">
          <mxGeometry y="116" width="160" height="30" as="geometry" />
        </mxCell>
        <mxCell id="622DtLXUnfuE_CCLkOnz-80" value="提案人單位" style="text;fillColor=none;spacingLeft=4;spacingRight=4;overflow=hidden;rotatable=0;points=[[0,0.5],[1,0.5]];portConstraint=eastwest;fontSize=12;strokeColor=#000000;" vertex="1" parent="622DtLXUnfuE_CCLkOnz-71">
          <mxGeometry y="146" width="160" height="30" as="geometry" />
        </mxCell>
        <mxCell id="622DtLXUnfuE_CCLkOnz-81" value="失效原因" style="text;fillColor=none;spacingLeft=4;spacingRight=4;overflow=hidden;rotatable=0;points=[[0,0.5],[1,0.5]];portConstraint=eastwest;fontSize=12;strokeColor=#000000;" vertex="1" parent="622DtLXUnfuE_CCLkOnz-71">
          <mxGeometry y="176" width="160" height="30" as="geometry" />
        </mxCell>
        <mxCell id="622DtLXUnfuE_CCLkOnz-83" value="備註說明" style="text;fillColor=none;spacingLeft=4;spacingRight=4;overflow=hidden;rotatable=0;points=[[0,0.5],[1,0.5]];portConstraint=eastwest;fontSize=12;strokeColor=#000000;" vertex="1" parent="622DtLXUnfuE_CCLkOnz-71">
          <mxGeometry y="206" width="160" height="30" as="geometry" />
        </mxCell>
        <mxCell id="622DtLXUnfuE_CCLkOnz-84" value="附加檔案" style="text;fillColor=none;spacingLeft=4;spacingRight=4;overflow=hidden;rotatable=0;points=[[0,0.5],[1,0.5]];portConstraint=eastwest;fontSize=12;strokeColor=#000000;" vertex="1" parent="622DtLXUnfuE_CCLkOnz-71">
          <mxGeometry y="236" width="160" height="30" as="geometry" />
        </mxCell>
        <mxCell id="622DtLXUnfuE_CCLkOnz-85" value="附加檔案的檔名或說明" style="text;fillColor=none;spacingLeft=4;spacingRight=4;overflow=hidden;rotatable=0;points=[[0,0.5],[1,0.5]];portConstraint=eastwest;fontSize=12;strokeColor=#000000;" vertex="1" parent="622DtLXUnfuE_CCLkOnz-71">
          <mxGeometry y="266" width="160" height="30" as="geometry" />
        </mxCell>
        <mxCell id="622DtLXUnfuE_CCLkOnz-86" value="&lt;font&gt;附加檔案有三個&lt;br&gt;&lt;/font&gt;&lt;div&gt;&lt;br&gt;&lt;/div&gt;" style="shape=note;whiteSpace=wrap;html=1;backgroundOutline=1;darkOpacity=0.05;rounded=1;size=20;fillColor=#f8cecc;strokeColor=#b85450;align=left;verticalAlign=bottom;" vertex="1" parent="1">
          <mxGeometry x="1740" y="1196" width="120" height="40" as="geometry" />
        </mxCell>
        <mxCell id="622DtLXUnfuE_CCLkOnz-87" style="edgeStyle=none;rounded=0;orthogonalLoop=1;jettySize=auto;html=1;exitX=1;exitY=0.5;exitDx=0;exitDy=0;entryX=0;entryY=0.5;entryDx=0;entryDy=0;entryPerimeter=0;dashed=1;endArrow=none;endFill=0;strokeColor=#FF0000;" edge="1" parent="1" source="622DtLXUnfuE_CCLkOnz-84" target="622DtLXUnfuE_CCLkOnz-86">
          <mxGeometry relative="1" as="geometry" />
        </mxCell>
        <mxCell id="622DtLXUnfuE_CCLkOnz-88" style="edgeStyle=none;rounded=0;orthogonalLoop=1;jettySize=auto;html=1;exitX=1;exitY=0.5;exitDx=0;exitDy=0;dashed=1;endArrow=none;endFill=0;strokeColor=#FF0000;entryX=0;entryY=0.5;entryDx=0;entryDy=0;entryPerimeter=0;" edge="1" parent="1" source="622DtLXUnfuE_CCLkOnz-85" target="622DtLXUnfuE_CCLkOnz-86">
          <mxGeometry relative="1" as="geometry">
            <mxPoint x="1770" y="1468" as="targetPoint" />
          </mxGeometry>
        </mxCell>
        <mxCell id="622DtLXUnfuE_CCLkOnz-89" value="Use" style="endArrow=open;endSize=12;dashed=1;html=1;strokeColor=#FF0000;exitX=1;exitY=0.5;exitDx=0;exitDy=0;entryX=0;entryY=0.5;entryDx=0;entryDy=0;" edge="1" parent="1" source="622DtLXUnfuE_CCLkOnz-40">
          <mxGeometry x="0.0853" y="-9" width="160" relative="1" as="geometry">
            <mxPoint x="1855.25" y="1198" as="sourcePoint" />
            <mxPoint x="1500.25" y="1021" as="targetPoint" />
            <mxPoint as="offset" />
          </mxGeometry>
        </mxCell>
        <mxCell id="622DtLXUnfuE_CCLkOnz-113" value="&lt;font&gt;&lt;div&gt;&lt;br&gt;&lt;/div&gt;&lt;div&gt;送主管簽核: 將案件送批示流程&lt;/div&gt;&lt;br&gt;&lt;div&gt;暫存:暫存後，可&lt;span&gt;至【案件維護查詢】功能進行維護動作&lt;/span&gt;&lt;/div&gt;&lt;/font&gt;&lt;div&gt;&lt;br&gt;&lt;/div&gt;" style="shape=note;whiteSpace=wrap;html=1;backgroundOutline=1;darkOpacity=0.05;rounded=1;size=20;fillColor=#f8cecc;strokeColor=#b85450;align=left;verticalAlign=top;" vertex="1" parent="1">
          <mxGeometry x="845.25" y="1210" width="256.12" height="100" as="geometry" />
        </mxCell>
        <mxCell id="622DtLXUnfuE_CCLkOnz-114" style="edgeStyle=none;rounded=0;orthogonalLoop=1;jettySize=auto;html=1;exitX=0.5;exitY=1;exitDx=0;exitDy=0;entryX=0.5;entryY=0;entryDx=0;entryDy=0;entryPerimeter=0;endArrow=none;endFill=0;strokeColor=#FF0000;dashed=1;" edge="1" parent="1" source="622DtLXUnfuE_CCLkOnz-24" target="622DtLXUnfuE_CCLkOnz-113">
          <mxGeometry relative="1" as="geometry">
            <mxPoint x="968.31" y="1200" as="targetPoint" />
          </mxGeometry>
        </mxCell>
        <mxCell id="622DtLXUnfuE_CCLkOnz-115" style="edgeStyle=none;rounded=0;orthogonalLoop=1;jettySize=auto;html=1;exitX=0.25;exitY=1;exitDx=0;exitDy=0;entryX=0;entryY=0;entryDx=118.06;entryDy=0;entryPerimeter=0;endArrow=none;endFill=0;strokeColor=#FF0000;dashed=1;" edge="1" parent="1" source="622DtLXUnfuE_CCLkOnz-26" target="622DtLXUnfuE_CCLkOnz-113">
          <mxGeometry relative="1" as="geometry">
            <mxPoint x="958.31" y="1200" as="targetPoint" />
          </mxGeometry>
        </mxCell>
        <mxCell id="622DtLXUnfuE_CCLkOnz-117" style="rounded=0;orthogonalLoop=1;jettySize=auto;html=1;entryX=-0.002;entryY=0.005;entryDx=0;entryDy=0;entryPerimeter=0;strokeColor=#FF0000;" edge="1" parent="1" source="622DtLXUnfuE_CCLkOnz-118" target="622DtLXUnfuE_CCLkOnz-1">
          <mxGeometry relative="1" as="geometry" />
        </mxCell>
        <mxCell id="622DtLXUnfuE_CCLkOnz-118" value="&lt;font style=&quot;font-size: 12px&quot;&gt;&lt;span style=&quot;color: rgb(68 , 68 , 68)&quot;&gt;此功能內容在:&lt;br&gt;help_custom_base.pdf的29頁&lt;br&gt;&lt;/span&gt;&lt;/font&gt;" style="shape=note;whiteSpace=wrap;html=1;backgroundOutline=1;darkOpacity=0.05;rounded=1;size=20;fillColor=#f8cecc;strokeColor=#b85450;align=left;verticalAlign=top;" vertex="1" parent="1">
          <mxGeometry x="340" y="32" width="240" height="60" as="geometry" />
        </mxCell>
        <mxCell id="622DtLXUnfuE_CCLkOnz-133" style="rounded=0;orthogonalLoop=1;jettySize=auto;html=1;exitX=0.5;exitY=1;exitDx=0;exitDy=0;endArrow=classic;endFill=1;strokeColor=#FF0000;" edge="1" parent="1" source="622DtLXUnfuE_CCLkOnz-124">
          <mxGeometry relative="1" as="geometry">
            <mxPoint x="920" y="590" as="targetPoint" />
            <mxPoint x="950" y="576" as="sourcePoint" />
            <Array as="points" />
          </mxGeometry>
        </mxCell>
        <mxCell id="622DtLXUnfuE_CCLkOnz-134" style="rounded=0;orthogonalLoop=1;jettySize=auto;html=1;exitX=0;exitY=0.5;exitDx=0;exitDy=0;endArrow=classic;endFill=1;strokeColor=#FF0000;" edge="1" parent="1" source="622DtLXUnfuE_CCLkOnz-124">
          <mxGeometry relative="1" as="geometry">
            <mxPoint x="780" y="590" as="targetPoint" />
            <mxPoint x="950" y="576" as="sourcePoint" />
            <Array as="points">
              <mxPoint x="780" y="556" />
            </Array>
          </mxGeometry>
        </mxCell>
        <mxCell id="622DtLXUnfuE_CCLkOnz-145" style="edgeStyle=none;rounded=0;orthogonalLoop=1;jettySize=auto;html=1;endArrow=none;endFill=0;strokeColor=#FF0000;dashed=1;exitX=0.998;exitY=0.485;exitDx=0;exitDy=0;exitPerimeter=0;" edge="1" parent="1" source="622DtLXUnfuE_CCLkOnz-45">
          <mxGeometry relative="1" as="geometry">
            <mxPoint x="629.1800000000001" y="675" as="sourcePoint" />
            <mxPoint x="920" y="640" as="targetPoint" />
            <Array as="points">
              <mxPoint x="920" y="670" />
            </Array>
          </mxGeometry>
        </mxCell>
        <mxCell id="622DtLXUnfuE_CCLkOnz-152" value="&lt;font style=&quot;font-size: 12px&quot;&gt;&lt;span style=&quot;color: rgb(68 , 68 , 68) ; font-family: &amp;#34;helvetica&amp;#34;&quot;&gt;操作權限：&lt;br&gt;該集團主要負責業務經理&lt;br&gt;&lt;br&gt;集團失效：&lt;br&gt;切斷企業體與集團間的關係，&lt;/span&gt;&lt;br style=&quot;color: rgb(68 , 68 , 68) ; font-family: &amp;#34;helvetica&amp;#34;&quot;&gt;&lt;span style=&quot;color: rgb(68 , 68 , 68) ; font-family: &amp;#34;helvetica&amp;#34;&quot;&gt;刪除該集團，&lt;/span&gt;&lt;span style=&quot;color: rgb(68 , 68 , 68) ; font-family: &amp;#34;helvetica&amp;#34;&quot;&gt;但其下之企業體狀態維持不變&lt;/span&gt;&lt;span style=&quot;color: rgb(68 , 68 , 68)&quot;&gt;&lt;br&gt;&lt;/span&gt;&lt;/font&gt;" style="shape=note;whiteSpace=wrap;html=1;backgroundOutline=1;darkOpacity=0.05;rounded=1;size=20;fillColor=#f8cecc;strokeColor=#b85450;align=left;verticalAlign=top;" vertex="1" parent="1">
          <mxGeometry x="340" y="340" width="270" height="120" as="geometry" />
        </mxCell>
      </root>
    </mxGraphModel>
  </diagram>
</mxfile>
